D:\school\WTK\thesis\model\3dpredictsim\Results\batch_windlass\Pog_s1_tmt_bCst_d00_k800_WL30_ig24_act_TTC_GRF.mot
nRows=12
nColumns=19

name D:\school\WTK\thesis\model\3dpredictsim\Results\batch_windlass\Pog_s1_tmt_bCst_d00_k800_WL30_ig24_act_TTC_GRF.mot
datacolumns 19
datarows 12
range 0.6236070342 0.7608005817
endheader
time 	ground_force_vx	ground_force_vy	ground_force_vz	ground_force_px	ground_force_py	ground_force_pz	1_ground_force_vx	1_ground_force_vy	1_ground_force_vz	1_ground_force_px	1_ground_force_py	1_ground_force_pz	ground_torque_x	ground_torque_y	ground_torque_z	1_ground_torque_x	1_ground_torque_y	1_ground_torque_z
        0.6236070342	       52.8084044192	      245.0778234026	        6.6968809013	        0.4035424818	        0.0000000000	        0.0240889142	      -65.1852478618	       52.6634758489	      -15.7256763946	        0.9457982650	        0.0000000000	       -0.0595089860	        0.0000000000	        0.0000000000	        0.0000000000	        0.0000000000	        0.0000000000	        0.0000000000	
        0.6360791749	       35.2306291739	      196.4473154206	       17.8182112304	        0.4067630435	        0.0000000000	        0.0226818866	     -150.2511155964	      157.7766819617	      -50.8104059620	        0.9568984644	        0.0000000000	       -0.0584158456	        0.0000000000	        0.0000000000	        0.0000000000	        0.0000000000	        0.0000000000	        0.0000000000	
        0.6485513155	       30.0785647336	      147.0742954572	       16.4093783521	        0.4070422231	        0.0000000000	        0.0226551716	      -97.0315580793	      458.7620083045	       -1.7212633536	        0.9737963272	        0.0000000000	       -0.0589422036	        0.0000000000	        0.0000000000	        0.0000000000	        0.0000000000	        0.0000000000	        0.0000000000	
        0.6610234562	       14.6905371232	       84.1196434119	       11.6568975191	        0.4068757758	        0.0000000000	        0.0226155859	     -126.8126843566	      802.0109653030	       24.3218253688	        0.9847205372	        0.0000000000	       -0.0604626634	        0.0000000000	        0.0000000000	        0.0000000000	        0.0000000000	        0.0000000000	        0.0000000000	
        0.6734955969	       -4.6635841386	       15.5917055267	        2.5105998521	        0.4035333975	        0.0000000000	        0.0223362878	     -168.8609421951	      987.8196018483	       31.3810804646	        0.9927741889	        0.0000000000	       -0.0607810404	        0.0000000000	        0.0000000000	        0.0000000000	        0.0000000000	        0.0000000000	        0.0000000000	
        0.6859677376	        0.0008265406	       -0.0007322369	        0.0000629960	        0.0000000000	        0.0000000000	        0.0000000000	     -189.5078155349	     1050.5381711577	       30.0597712146	        1.0035022653	        0.0000000000	       -0.0597672693	        0.0000000000	        0.0000000000	        0.0000000000	        0.0000000000	        0.0000000000	        0.0000000000	
        0.6984398783	        0.0005556332	       -0.0004263002	        0.0000441291	        0.0000000000	        0.0000000000	        0.0000000000	     -173.4864940302	      984.8504791517	       26.6561281930	        1.0113248808	        0.0000000000	       -0.0587048886	        0.0000000000	        0.0000000000	        0.0000000000	        0.0000000000	        0.0000000000	        0.0000000000	
        0.7109120190	        0.0015346838	       -0.0009818305	        0.0001434621	        0.0000000000	        0.0000000000	        0.0000000000	     -144.5452809035	      876.8317356556	       24.8900042625	        1.0156166605	        0.0000000000	       -0.0579673328	        0.0000000000	        0.0000000000	        0.0000000000	        0.0000000000	        0.0000000000	        0.0000000000	
        0.7233841596	        0.0222379019	       -0.0129087292	        0.0020705598	        0.0000000000	        0.0000000000	        0.0000000000	     -120.5016935880	      787.0046246522	       22.4190032157	        1.0191254344	        0.0000000000	       -0.0575581039	        0.0000000000	        0.0000000000	        0.0000000000	        0.0000000000	        0.0000000000	        0.0000000000	
        0.7358563003	       -0.0962207429	        0.0523127730	       -0.0085455028	        0.0000000000	        0.0000000000	        0.0000000000	     -102.8632567885	      724.9886718921	       21.4486627376	        1.0225109935	        0.0000000000	       -0.0572811433	        0.0000000000	        0.0000000000	        0.0000000000	        0.0000000000	        0.0000000000	        0.0000000000	
        0.7483284410	       -0.0658511999	        0.0344505208	       -0.0053674535	        0.0000000000	        0.0000000000	        0.0000000000	      -89.1738159532	      682.7704058571	       20.9341561721	        1.0256634131	        0.0000000000	       -0.0571025311	        0.0000000000	        0.0000000000	        0.0000000000	        0.0000000000	        0.0000000000	        0.0000000000	
        0.7608005817	       -0.0346727452	        0.0176790683	       -0.0025213735	        0.0000000000	        0.0000000000	        0.0000000000	      -76.8562835106	      653.4618947303	       21.1577152367	        1.0286781096	        0.0000000000	       -0.0569804355	        0.0000000000	        0.0000000000	        0.0000000000	        0.0000000000	        0.0000000000	        0.0000000000	
